<svg width="1991" height="447" viewBox="0 0 1991 447" fill="none" xmlns="http://www.w3.org/2000/svg">
<path d="M0 400H400V-2.86102e-06H0V400ZM388.568 372L436.864 81.0909H563C585.159 81.0909 603.294 84.0739 617.403 90.0398C631.608 96.0057 641.646 104.434 647.517 115.324C653.483 126.214 655.235 139.045 652.773 153.818C650.879 164.424 646.807 174.131 640.557 182.938C634.402 191.65 626.589 199.036 617.119 205.097C607.744 211.062 597.28 215.182 585.727 217.455L585.159 220.295C597.659 220.674 608.549 223.799 617.83 229.67C627.11 235.447 633.928 243.496 638.284 253.818C642.64 264.045 643.682 275.977 641.409 289.614C638.758 305.523 632.271 319.68 621.949 332.085C611.627 344.491 598.227 354.244 581.75 361.347C565.273 368.449 546.523 372 525.5 372H388.568ZM478.341 308.932H515.273C528.341 308.932 538.616 306.422 546.097 301.403C553.672 296.384 558.17 289.045 559.591 279.386C560.727 272.568 560.159 266.792 557.886 262.057C555.614 257.322 551.778 253.723 546.381 251.261C540.983 248.799 534.212 247.568 526.068 247.568H488L478.341 308.932ZM496.523 198.705H528.909C535.727 198.705 541.977 197.616 547.659 195.438C553.341 193.259 558.028 190.087 561.722 185.92C565.415 181.754 567.735 176.735 568.682 170.864C570.102 161.773 567.924 154.86 562.148 150.125C556.466 145.39 548.795 143.023 539.136 143.023H505.614L496.523 198.705ZM802.278 276.545L822.733 153.818H901.142L864.778 372H790.347L797.165 330.523H794.892C788.169 344.443 778.131 355.333 764.778 363.193C751.521 370.958 736.748 374.841 720.46 374.841C705.214 374.841 692.477 371.337 682.25 364.33C672.023 357.322 664.778 347.663 660.517 335.352C656.256 323.042 655.403 308.932 657.96 293.023L681.256 153.818H759.665L739.21 276.545C737.6 287.341 738.973 295.816 743.33 301.972C747.78 308.127 754.93 311.205 764.778 311.205C771.313 311.205 777.184 309.831 782.392 307.085C787.695 304.244 792.051 300.267 795.46 295.153C798.964 289.945 801.237 283.742 802.278 276.545ZM895.499 372L902.317 328.818L1016.52 214.614L1017.09 213.477H925.044L935.271 153.818H1119.93L1112.54 201.545L1007.43 311.205L1006.86 312.341H1097.2L1087.54 372H895.499ZM1118.55 372L1125.93 328.25L1294.12 144.727H1156.62L1167.41 81.0909H1404.91L1397.53 124.841L1229.34 308.364H1366.84L1356.05 372H1118.55ZM1384.85 372L1421.21 153.818H1495.65L1488.83 195.295H1491.1C1497.82 181.659 1507.34 170.864 1519.65 162.909C1531.96 154.955 1545.74 150.977 1560.99 150.977C1576.23 150.977 1588.73 155.049 1598.49 163.193C1608.24 171.242 1613.17 181.943 1613.26 195.295H1615.53C1621.4 181.943 1631.02 171.242 1644.37 163.193C1657.72 155.049 1672.54 150.977 1688.83 150.977C1709.57 150.977 1725.33 157.701 1736.13 171.148C1747.02 184.595 1750.57 202.492 1746.78 224.841L1722.35 372H1643.94L1665.53 244.727C1666.86 235.163 1665.53 227.682 1661.56 222.284C1657.58 216.792 1651.52 214.045 1643.37 214.045C1635.32 214.045 1628.51 216.792 1622.92 222.284C1617.43 227.682 1614.02 235.163 1612.69 244.727L1591.1 372H1516.1L1537.69 244.727C1539.02 235.163 1537.69 227.682 1533.71 222.284C1529.74 216.792 1523.68 214.045 1515.53 214.045C1510.23 214.045 1505.4 215.277 1501.04 217.739C1496.78 220.201 1493.23 223.752 1490.39 228.392C1487.64 232.937 1485.8 238.383 1484.85 244.727L1463.26 372H1384.85ZM1852.43 375.977C1829.14 375.977 1809.82 371.527 1794.48 362.625C1779.14 353.629 1768.34 340.75 1762.09 323.989C1755.84 307.133 1754.7 286.962 1758.68 263.477C1762.47 240.939 1770.28 221.242 1782.12 204.386C1794.05 187.53 1809.06 174.415 1827.15 165.04C1845.33 155.665 1865.69 150.977 1888.23 150.977C1904.7 150.977 1919.15 153.534 1931.55 158.648C1944.05 163.761 1954.23 171.195 1962.09 180.949C1969.95 190.703 1975.25 202.492 1978 216.318C1980.84 230.049 1980.84 245.58 1978 262.909L1975.16 281.091H1780.27L1787.09 237.909H1909.82C1910.77 231.659 1910.15 226.167 1907.97 221.432C1905.89 216.602 1902.53 212.862 1897.89 210.21C1893.34 207.464 1887.85 206.091 1881.41 206.091C1874.97 206.091 1868.91 207.464 1863.23 210.21C1857.64 212.956 1852.86 216.792 1848.88 221.716C1845 226.64 1842.39 232.417 1841.07 239.045L1832.55 284.5C1831.41 291.508 1831.84 297.758 1833.82 303.25C1835.81 308.742 1839.27 313.051 1844.19 316.176C1849.12 319.301 1855.46 320.864 1863.23 320.864C1868.53 320.864 1873.55 320.153 1878.28 318.733C1883.11 317.218 1887.38 315.04 1891.07 312.199C1894.86 309.263 1897.89 305.712 1900.16 301.545H1971.75C1966.64 316.697 1958.54 329.86 1947.46 341.034C1936.48 352.114 1922.93 360.731 1906.84 366.886C1890.83 372.947 1872.7 375.977 1852.43 375.977Z" fill="white"/>
</svg>
